# xmcd
#
# Track frame offsets: 
#        150
#        12158
#        24093
#        36978
#        48425
#        60428
#        70988
#        84218
#        95270
#        105933
#        117588
#        128488
#        140505
#        153615
#        165342
#        176900
#        187347
#        198890
#        209523
#        220288
#        231293
#
# Disc length: 3225 seconds
#
# Revision: 0
# Processed by: cddbd v1.5.2PL0 Copyright (c) Steve Scherf et al.
# Submitted via: ExactAudioCopy v0.95b4
#
DISCID=1f0c9715
DTITLE=Robert Johnson - The High Price of Soul Disc 2
DYEAR=2006
DGENRE=Blues
TTITLE0=Hellhound on my Trail
TTITLE1=If I Had Possession Over Judgement Day
TTITLE2=Traveling Riverside Blues
TTITLE3=Stones in My Passway
TTITLE4=I'm a Steady Rollin' Man
TTITLE5=Honeymoon Blues
TTITLE6=32-20 Blues
TTITLE7=From Four Till Late
TTITLE8=Malted Milk
TTITLE9=Kindhearted Woman Blues
TTITLE10=Rambling on My Mind
TTITLE11=Come on in My Kitchen
TTITLE12=When You Got a Good Friend
TTITLE13=Phonograph Blues
TTITLE14=Cross Road Blues
TTITLE15=Little Queen of Spades
TTITLE16=Me and the Devil Blues
TTITLE17=Milkcow's Calf Blues
TTITLE18=Drunken Hearted Man
TTITLE19=Stop Breakin' Down Blues
TTITLE20=Love in Vain
EXTD=
EXTT0=
EXTT1=
EXTT2=
EXTT3=
EXTT4=
EXTT5=
EXTT6=
EXTT7=
EXTT8=
EXTT9=
EXTT10=
EXTT11=
EXTT12=
EXTT13=
EXTT14=
EXTT15=
EXTT16=
EXTT17=
EXTT18=
EXTT19=
EXTT20=
PLAYORDER=
